<svg xmlns="http://www.w3.org/2000/svg" width="16" height="16" class="icon" viewBox="0 0 1024 1024"><path d="m258.56 681.36-12.704 44.288a16 16 0 0 1-7.616 9.584l-24.752 13.712a14.464 14.464 0 0 1-20.928-16.64l38.128-132.96a11.136 11.136 0 0 1 13.76-7.632l132.976 38.128a14.464 14.464 0 0 1 3.04 26.56l-24.768 13.712a16 16 0 0 1-12.16 1.392l-42.016-12.048a264.112 264.112 0 0 0 468.112-41.76 14.288 14.288 0 0 1 3.296-4.912A263.424 263.424 0 0 0 789.696 520c0-90.496-45.536-170.368-114.96-217.92a264.112 264.112 0 0 0-393.808 118.8 14.336 14.336 0 0 1-17.968 8.16l-20.256-7.024a12.352 12.352 0 0 1-7.456-16.192A312.112 312.112 0 0 1 525.696 208c66.112 0 128.256 20.752 179.44 56.736a313.12 313.12 0 0 1 108.656 135.312A311.04 311.04 0 0 1 837.696 520c0 172.32-139.68 312-312 312v-.208h-.832c-110.96 0-210.768-59.296-266.304-150.432z"/></svg>