<svg xmlns="http://www.w3.org/2000/svg" width="200" height="200" class="icon" viewBox="0 0 1024 1024"><path fill="#BF7500" d="M0 943.787h66.56V843.093z"/><path fill="#FAA725" d="M460.8 0 0 406.187v537.6L1024 0z"/><path fill="#FFF" d="m261.12 552.96 18.773-17.067-66.56-75.093 52.907-46.08-6.827-6.827-68.266 61.44-13.654-15.36 68.267-61.44-6.827-8.533-59.733 54.613-35.84-39.253 151.893-136.533 35.84 39.253-64.853 58.027 6.827 6.826 71.68-64.853 13.653 15.36-71.68 64.853 6.827 6.827 56.32-49.493 66.56 75.093 18.773-17.067 13.653 15.36-174.08 155.307-13.653-15.36zm-73.387-150.187L209.92 384l-10.24-10.24-22.187 18.773 10.24 10.24zm42.667-37.546 22.187-18.774-10.24-10.24-22.187 18.774 10.24 10.24zm107.52 11.946-87.04 76.8L256 460.8l87.04-76.8-5.12-6.827zm-44.373-68.266-10.24-10.24-22.187 18.773 10.24 10.24 22.187-18.773zm-20.48 168.96 87.04-76.8-5.12-6.827-87.04 76.8 5.12 6.827zm15.36 18.773 87.04-76.8-5.12-6.827-87.04 76.8 5.12 6.827zm17.066 17.067 87.04-76.8-6.826-6.827-87.04 76.8 6.826 6.827zm6.827-262.827 61.44-54.613 20.48 23.893-15.36 13.653 95.573 107.52c6.827 6.827 10.24 13.654 11.947 20.48 1.707 6.827 0 11.947-3.413 17.067-3.414 5.12-11.947 13.653-27.307 27.307-6.827-6.827-15.36-11.947-23.893-18.774 5.12-3.413 11.946-8.533 17.066-13.653 5.12-3.413 5.12-8.533 0-13.653L356.693 256l-22.186 20.48-22.187-25.6zm63.147-58.027L481.28 97.28l20.48 22.187-46.08 40.96 11.947 18.773L512 139.947l71.68 80.213-23.893 20.48-52.907-58.027-54.613 47.787 52.906 59.733-23.893 20.48L409.6 230.4l30.72-27.307-11.947-18.773-34.133 30.72-18.773-22.187zm102.4 34.134 22.186-20.48c15.36 17.066 25.6 32.426 34.134 46.08 25.6-5.12 52.906-8.534 80.213-10.24l1.707 32.426c-20.48 0-44.374 3.414-73.387 5.12 3.413 20.48-1.707 46.08-18.773 76.8-10.24-3.413-20.48-6.826-34.134-10.24 10.24-15.36 15.36-29.013 18.774-40.96s1.706-25.6-3.414-37.546c-3.413-11.947-13.653-25.6-27.306-40.96z"/></svg>