<svg xmlns="http://www.w3.org/2000/svg" width="16" height="16" class="icon" viewBox="0 0 1024 1024"><path d="M128 42.667A85.038 85.038 0 0 0 42.667 128v597.333A85.038 85.038 0 0 0 128 810.667h512l-256-768H128m398.507 170.666 28.16 85.334H896V896H528.213l27.734 85.333H896A85.038 85.038 0 0 0 981.333 896V298.667A85.038 85.038 0 0 0 896 213.333H526.507m-225.28 38.827c46.933 0 86.613 17.067 116.053 46.507l-47.787 43.946c-12.373-12.373-33.706-26.453-68.266-26.453-59.307 0-106.667 48.64-106.667 107.947 0 59.306 47.36 109.226 106.667 109.226 69.12 0 93.866-49.92 98.986-74.666h-98.986v-58.454h162.986c2.134 9.814 2.56 16.64 2.56 29.014 0 98.986-66.56 168.106-165.546 168.106-96 0-173.227-77.226-173.227-173.226 0-96.427 77.227-171.947 173.227-171.947m381.44 174.507v42.666H611.84L625.493 512H768c-11.52 26.027-15.787 49.92-50.773 90.88-17.067-20.053-30.72-37.547-34.56-48.213H640c5.12 18.346 26.453 46.933 52.053 75.946-5.546 5.547-13.226 12.8-20.053 18.774l11.947 35.84c10.666-9.387 21.333-19.2 32-29.014 43.52 45.654 89.6 87.894 89.6 87.894l23.893-25.6s-45.653-44.8-86.613-89.174C769.707 599.467 793.6 563.2 810.667 512h42.666v-42.667h-128v-42.666h-42.666Z"/></svg>